<mxfile host="Electron" modified="2023-10-16T19:13:25.459Z" agent="Mozilla/5.0 (Macintosh; Intel Mac OS X 10_15_7) AppleWebKit/537.36 (KHTML, like Gecko) draw.io/21.2.8 Chrome/112.0.5615.165 Electron/24.2.0 Safari/537.36" etag="jKgu8eg8koBzyQdsBbbF" version="21.2.8" type="device" pages="2">
  <diagram name="Page-1" id="Vcoee3_VlXlSHSknnswv">
    <mxGraphModel dx="1168" dy="1940" grid="1" gridSize="10" guides="1" tooltips="1" connect="1" arrows="1" fold="1" page="1" pageScale="1" pageWidth="850" pageHeight="1100" math="0" shadow="0">
      <root>
        <mxCell id="0" />
        <mxCell id="1" parent="0" />
        <mxCell id="FlnB4dvPjRWMIs5MZYfn-2" value="" style="outlineConnect=0;dashed=0;verticalLabelPosition=bottom;verticalAlign=top;align=center;html=1;shape=mxgraph.aws3.global_secondary_index;fillColor=#2E73B8;gradientColor=none;" vertex="1" parent="1">
          <mxGeometry x="81" y="80" width="80" height="80" as="geometry" />
        </mxCell>
        <mxCell id="FlnB4dvPjRWMIs5MZYfn-3" value="" style="outlineConnect=0;dashed=0;verticalLabelPosition=bottom;verticalAlign=top;align=center;html=1;shape=mxgraph.aws3.cache_node;fillColor=#2E73B8;gradientColor=none;" vertex="1" parent="1">
          <mxGeometry x="81" y="200" width="80" height="80" as="geometry" />
        </mxCell>
        <mxCell id="FlnB4dvPjRWMIs5MZYfn-4" value="&lt;h1&gt;Heading&lt;/h1&gt;&lt;p&gt;Lorem ipsum dolor sit amet, consectetur adipisicing elit, sed do eiusmod tempor incididunt ut labore et dolore magna aliqua.&lt;/p&gt;" style="text;html=1;strokeColor=none;fillColor=none;spacing=5;spacingTop=-20;whiteSpace=wrap;overflow=hidden;rounded=0;" vertex="1" parent="1">
          <mxGeometry x="280" y="-220" width="400" height="290" as="geometry" />
        </mxCell>
        <mxCell id="FlnB4dvPjRWMIs5MZYfn-5" value="Run Search with Query" style="rounded=0;whiteSpace=wrap;html=1;" vertex="1" parent="1">
          <mxGeometry x="81" y="320" width="119" height="80" as="geometry" />
        </mxCell>
        <mxCell id="FlnB4dvPjRWMIs5MZYfn-6" value="Run Search with Query" style="rounded=0;whiteSpace=wrap;html=1;" vertex="1" parent="1">
          <mxGeometry x="250" y="330" width="119" height="80" as="geometry" />
        </mxCell>
        <mxCell id="FlnB4dvPjRWMIs5MZYfn-7" value="boto_ses, aws_res, boto_args, query_args" style="rounded=0;whiteSpace=wrap;html=1;" vertex="1" parent="1">
          <mxGeometry x="880" y="290" width="119" height="80" as="geometry" />
        </mxCell>
        <mxCell id="FlnB4dvPjRWMIs5MZYfn-8" value="boto&lt;br&gt;session" style="whiteSpace=wrap;html=1;aspect=fixed;" vertex="1" parent="1">
          <mxGeometry x="790" y="410" width="80" height="80" as="geometry" />
        </mxCell>
        <mxCell id="FlnB4dvPjRWMIs5MZYfn-9" value="AWS&lt;br&gt;resource" style="whiteSpace=wrap;html=1;aspect=fixed;" vertex="1" parent="1">
          <mxGeometry x="909" y="410" width="80" height="80" as="geometry" />
        </mxCell>
        <mxCell id="FlnB4dvPjRWMIs5MZYfn-10" value="boto&lt;br&gt;args" style="whiteSpace=wrap;html=1;aspect=fixed;" vertex="1" parent="1">
          <mxGeometry x="790" y="530" width="80" height="80" as="geometry" />
        </mxCell>
        <mxCell id="FlnB4dvPjRWMIs5MZYfn-11" value="query&lt;br&gt;args" style="whiteSpace=wrap;html=1;aspect=fixed;" vertex="1" parent="1">
          <mxGeometry x="909" y="530" width="80" height="80" as="geometry" />
        </mxCell>
        <mxCell id="FlnB4dvPjRWMIs5MZYfn-13" value="AWS Resources" style="sketch=0;points=[[0,0,0],[0.25,0,0],[0.5,0,0],[0.75,0,0],[1,0,0],[0,1,0],[0.25,1,0],[0.5,1,0],[0.75,1,0],[1,1,0],[0,0.25,0],[0,0.5,0],[0,0.75,0],[1,0.25,0],[1,0.5,0],[1,0.75,0]];gradientDirection=north;outlineConnect=0;fontColor=#232F3E;gradientColor=#505863;fillColor=#1E262E;strokeColor=#ffffff;dashed=0;verticalLabelPosition=bottom;verticalAlign=top;align=center;html=1;fontSize=12;fontStyle=0;aspect=fixed;shape=mxgraph.aws4.resourceIcon;resIcon=mxgraph.aws4.general;" vertex="1" parent="1">
          <mxGeometry x="680" y="240" width="80" height="80" as="geometry" />
        </mxCell>
        <mxCell id="FlnB4dvPjRWMIs5MZYfn-14" value="Boto Args" style="outlineConnect=0;dashed=0;verticalLabelPosition=bottom;verticalAlign=top;align=center;html=1;shape=mxgraph.aws3.android;fillColor=#FFD44F;gradientColor=none;" vertex="1" parent="1">
          <mxGeometry x="520" y="80" width="80" height="80" as="geometry" />
        </mxCell>
        <mxCell id="FlnB4dvPjRWMIs5MZYfn-15" value="Boto Session" style="sketch=0;outlineConnect=0;fontColor=#232F3E;gradientColor=none;fillColor=#BF0816;strokeColor=none;dashed=0;verticalLabelPosition=bottom;verticalAlign=top;align=center;html=1;fontSize=12;fontStyle=0;pointerEvents=1;shape=mxgraph.aws4.long_term_security_credential;" vertex="1" parent="1">
          <mxGeometry x="360" y="80" width="80" height="90" as="geometry" />
        </mxCell>
        <mxCell id="FlnB4dvPjRWMIs5MZYfn-16" value="Query Args" style="editableCssRules=.*;html=1;shape=image;verticalLabelPosition=bottom;labelBackgroundColor=#ffffff;verticalAlign=top;aspect=fixed;imageAspect=0;image=data:image/svg+xml,PHN2ZyB4bWxucz0iaHR0cDovL3d3dy53My5vcmcvMjAwMC9zdmciIHhtbG5zOnY9Imh0dHBzOi8vdmVjdGEuaW8vbmFubyIgd2lkdGg9IjIwLjAwMTA0NTIyNzA1MDc4IiBoZWlnaHQ9IjIwLjAwMTA0NTIyNzA1MDc4IiBmaWxsLXJ1bGU9ImV2ZW5vZGQiIHZpZXdCb3g9IjAgMCAyMC4wMDEwNDUyMjcwNTA3OCAyMC4wMDEwNDUyMjcwNTA3OCI+JiN4YTsJPHN0eWxlIHR5cGU9InRleHQvY3NzIj4mI3hhOwkuc3Qwe2ZpbGw6I2FlY2JmYTt9JiN4YTsJLnN0MXtmaWxsOiM2NjlkZjY7fSYjeGE7CS5zdDJ7ZmlsbDojNDI4NWY0O30mI3hhOwk8L3N0eWxlPiYjeGE7CTxwYXRoIGNsYXNzPSJzdDAiIGQ9Ik00LjczIDguODN2Mi42M2E0LjkxIDQuOTEgMCAwIDAgMS43MSAxLjc0VjguODN6Ii8+JiN4YTsJPHBhdGggY2xhc3M9InN0MSIgZD0iTTcuODkgNi40MXY3LjUzQTcuNjIgNy42MiAwIDAgMCA5IDE0YTggOCAwIDAgMCAxIDBWNi40MXoiLz4mI3hhOwk8cGF0aCBjbGFzcz0ic3QwIiBkPSJNMTEuNjQgOS44NnYzLjI5YTUgNSAwIDAgMCAxLjctMS44MlY5Ljg2eiIvPiYjeGE7CTxwYXRoIGNsYXNzPSJzdDIiIGQ9Ik0xNS43NCAxNC4zMmwtMS40MiAxLjQyYS40Mi40MiAwIDAgMCAwIC42bDMuNTQgMy41NGEuNDIuNDIgMCAwIDAgLjU5IDBsMS40My0xLjQzYS40Mi40MiAwIDAgMCAwLS41OWwtMy41NC0zLjU0YS40Mi40MiAwIDAgMC0uNiAwIi8+JiN4YTsJPHBhdGggY2xhc3M9InN0MSIgZD0iTTkgMGE5IDkgMCAxIDAgMCAxOEE5IDkgMCAxIDAgOSAwbTAgMTUuNjlhNi42OCA2LjY4IDAgMCAxIC4wMDctMTMuMzYgNi42OCA2LjY4IDAgMCAxIDQuNzI3IDExLjQwM0E2LjY4IDYuNjggMCAwIDEgOSAxNS42OSIvPiYjeGE7PC9zdmc+;" vertex="1" parent="1">
          <mxGeometry x="640" y="80" width="80" height="80" as="geometry" />
        </mxCell>
        <mxCell id="FlnB4dvPjRWMIs5MZYfn-31" value="" style="group" vertex="1" connectable="0" parent="1">
          <mxGeometry x="81" y="720" width="319" height="200" as="geometry" />
        </mxCell>
        <mxCell id="FlnB4dvPjRWMIs5MZYfn-30" value="" style="rounded=0;whiteSpace=wrap;html=1;fillColor=none;" vertex="1" parent="FlnB4dvPjRWMIs5MZYfn-31">
          <mxGeometry width="319" height="200" as="geometry" />
        </mxCell>
        <mxCell id="FlnB4dvPjRWMIs5MZYfn-22" value="Query&lt;br&gt;Cache Key" style="sketch=0;outlineConnect=0;fontColor=#232F3E;gradientColor=none;fillColor=#4D27AA;strokeColor=none;dashed=0;verticalLabelPosition=bottom;verticalAlign=top;align=center;html=1;fontSize=12;fontStyle=0;aspect=fixed;pointerEvents=1;shape=mxgraph.aws4.redshift_query_editor_v20_light;" vertex="1" parent="FlnB4dvPjRWMIs5MZYfn-31">
          <mxGeometry x="20" y="20" width="40" height="40" as="geometry" />
        </mxCell>
        <mxCell id="FlnB4dvPjRWMIs5MZYfn-25" value="Query Args" style="editableCssRules=.*;html=1;shape=image;verticalLabelPosition=bottom;labelBackgroundColor=#ffffff;verticalAlign=top;aspect=fixed;imageAspect=0;image=data:image/svg+xml,PHN2ZyB4bWxucz0iaHR0cDovL3d3dy53My5vcmcvMjAwMC9zdmciIHhtbG5zOnY9Imh0dHBzOi8vdmVjdGEuaW8vbmFubyIgd2lkdGg9IjIwLjAwMTA0NTIyNzA1MDc4IiBoZWlnaHQ9IjIwLjAwMTA0NTIyNzA1MDc4IiBmaWxsLXJ1bGU9ImV2ZW5vZGQiIHZpZXdCb3g9IjAgMCAyMC4wMDEwNDUyMjcwNTA3OCAyMC4wMDEwNDUyMjcwNTA3OCI+JiN4YTsJPHN0eWxlIHR5cGU9InRleHQvY3NzIj4mI3hhOwkuc3Qwe2ZpbGw6I2FlY2JmYTt9JiN4YTsJLnN0MXtmaWxsOiM2NjlkZjY7fSYjeGE7CS5zdDJ7ZmlsbDojNDI4NWY0O30mI3hhOwk8L3N0eWxlPiYjeGE7CTxwYXRoIGNsYXNzPSJzdDAiIGQ9Ik00LjczIDguODN2Mi42M2E0LjkxIDQuOTEgMCAwIDAgMS43MSAxLjc0VjguODN6Ii8+JiN4YTsJPHBhdGggY2xhc3M9InN0MSIgZD0iTTcuODkgNi40MXY3LjUzQTcuNjIgNy42MiAwIDAgMCA5IDE0YTggOCAwIDAgMCAxIDBWNi40MXoiLz4mI3hhOwk8cGF0aCBjbGFzcz0ic3QwIiBkPSJNMTEuNjQgOS44NnYzLjI5YTUgNSAwIDAgMCAxLjctMS44MlY5Ljg2eiIvPiYjeGE7CTxwYXRoIGNsYXNzPSJzdDIiIGQ9Ik0xNS43NCAxNC4zMmwtMS40MiAxLjQyYS40Mi40MiAwIDAgMCAwIC42bDMuNTQgMy41NGEuNDIuNDIgMCAwIDAgLjU5IDBsMS40My0xLjQzYS40Mi40MiAwIDAgMCAwLS41OWwtMy41NC0zLjU0YS40Mi40MiAwIDAgMC0uNiAwIi8+JiN4YTsJPHBhdGggY2xhc3M9InN0MSIgZD0iTTkgMGE5IDkgMCAxIDAgMCAxOEE5IDkgMCAxIDAgOSAwbTAgMTUuNjlhNi42OCA2LjY4IDAgMCAxIC4wMDctMTMuMzYgNi42OCA2LjY4IDAgMCAxIDQuNzI3IDExLjQwM0E2LjY4IDYuNjggMCAwIDEgOSAxNS42OSIvPiYjeGE7PC9zdmc+;" vertex="1" parent="FlnB4dvPjRWMIs5MZYfn-31">
          <mxGeometry x="199" y="120" width="40" height="40" as="geometry" />
        </mxCell>
        <mxCell id="FlnB4dvPjRWMIs5MZYfn-27" value="Boto &lt;br&gt;Args" style="outlineConnect=0;dashed=0;verticalLabelPosition=bottom;verticalAlign=top;align=center;html=1;shape=mxgraph.aws3.android;fillColor=#FFD44F;gradientColor=none;" vertex="1" parent="FlnB4dvPjRWMIs5MZYfn-31">
          <mxGeometry x="119" y="120" width="40" height="40" as="geometry" />
        </mxCell>
        <mxCell id="FlnB4dvPjRWMIs5MZYfn-28" value="Boto&lt;br&gt;Session" style="sketch=0;outlineConnect=0;fontColor=#232F3E;gradientColor=none;fillColor=#BF0816;strokeColor=none;dashed=0;verticalLabelPosition=bottom;verticalAlign=top;align=center;html=1;fontSize=12;fontStyle=0;pointerEvents=1;shape=mxgraph.aws4.long_term_security_credential;" vertex="1" parent="FlnB4dvPjRWMIs5MZYfn-31">
          <mxGeometry x="119" y="40" width="40" height="40" as="geometry" />
        </mxCell>
        <mxCell id="FlnB4dvPjRWMIs5MZYfn-29" value="AWS&lt;br&gt;Resources" style="sketch=0;points=[[0,0,0],[0.25,0,0],[0.5,0,0],[0.75,0,0],[1,0,0],[0,1,0],[0.25,1,0],[0.5,1,0],[0.75,1,0],[1,1,0],[0,0.25,0],[0,0.5,0],[0,0.75,0],[1,0.25,0],[1,0.5,0],[1,0.75,0]];gradientDirection=north;outlineConnect=0;fontColor=#232F3E;gradientColor=#505863;fillColor=#1E262E;strokeColor=#ffffff;dashed=0;verticalLabelPosition=bottom;verticalAlign=top;align=center;html=1;fontSize=12;fontStyle=0;aspect=fixed;shape=mxgraph.aws4.resourceIcon;resIcon=mxgraph.aws4.general;" vertex="1" parent="FlnB4dvPjRWMIs5MZYfn-31">
          <mxGeometry x="199" y="40" width="40" height="40" as="geometry" />
        </mxCell>
        <mxCell id="FlnB4dvPjRWMIs5MZYfn-32" value="" style="group" vertex="1" connectable="0" parent="1">
          <mxGeometry x="80" y="520" width="320" height="160" as="geometry" />
        </mxCell>
        <mxCell id="FlnB4dvPjRWMIs5MZYfn-21" value="" style="rounded=0;whiteSpace=wrap;html=1;fillColor=none;" vertex="1" parent="FlnB4dvPjRWMIs5MZYfn-32">
          <mxGeometry width="320" height="160" as="geometry" />
        </mxCell>
        <mxCell id="FlnB4dvPjRWMIs5MZYfn-17" value="Boto &lt;br&gt;Args" style="outlineConnect=0;dashed=0;verticalLabelPosition=bottom;verticalAlign=top;align=center;html=1;shape=mxgraph.aws3.android;fillColor=#FFD44F;gradientColor=none;" vertex="1" parent="FlnB4dvPjRWMIs5MZYfn-32">
          <mxGeometry x="240" y="80" width="40" height="40" as="geometry" />
        </mxCell>
        <mxCell id="FlnB4dvPjRWMIs5MZYfn-18" value="Boto&lt;br&gt;Session" style="sketch=0;outlineConnect=0;fontColor=#232F3E;gradientColor=none;fillColor=#BF0816;strokeColor=none;dashed=0;verticalLabelPosition=bottom;verticalAlign=top;align=center;html=1;fontSize=12;fontStyle=0;pointerEvents=1;shape=mxgraph.aws4.long_term_security_credential;" vertex="1" parent="FlnB4dvPjRWMIs5MZYfn-32">
          <mxGeometry x="80" y="80" width="40" height="40" as="geometry" />
        </mxCell>
        <mxCell id="FlnB4dvPjRWMIs5MZYfn-20" value="Data &lt;br&gt;Cache Key" style="html=1;verticalLabelPosition=bottom;align=center;labelBackgroundColor=#ffffff;verticalAlign=top;strokeWidth=2;strokeColor=#0080F0;shadow=0;dashed=0;shape=mxgraph.ios7.icons.data;" vertex="1" parent="FlnB4dvPjRWMIs5MZYfn-32">
          <mxGeometry x="21" y="20" width="40" height="40" as="geometry" />
        </mxCell>
        <mxCell id="FlnB4dvPjRWMIs5MZYfn-26" value="AWS&lt;br&gt;Resources" style="sketch=0;points=[[0,0,0],[0.25,0,0],[0.5,0,0],[0.75,0,0],[1,0,0],[0,1,0],[0.25,1,0],[0.5,1,0],[0.75,1,0],[1,1,0],[0,0.25,0],[0,0.5,0],[0,0.75,0],[1,0.25,0],[1,0.5,0],[1,0.75,0]];gradientDirection=north;outlineConnect=0;fontColor=#232F3E;gradientColor=#505863;fillColor=#1E262E;strokeColor=#ffffff;dashed=0;verticalLabelPosition=bottom;verticalAlign=top;align=center;html=1;fontSize=12;fontStyle=0;aspect=fixed;shape=mxgraph.aws4.resourceIcon;resIcon=mxgraph.aws4.general;" vertex="1" parent="FlnB4dvPjRWMIs5MZYfn-32">
          <mxGeometry x="160" y="80" width="40" height="40" as="geometry" />
        </mxCell>
        <mxCell id="FlnB4dvPjRWMIs5MZYfn-42" value="NO" style="edgeStyle=orthogonalEdgeStyle;rounded=0;orthogonalLoop=1;jettySize=auto;html=1;exitX=1;exitY=0.5;exitDx=0;exitDy=0;exitPerimeter=0;entryX=0.5;entryY=0;entryDx=0;entryDy=0;strokeWidth=2;" edge="1" parent="1" source="FlnB4dvPjRWMIs5MZYfn-36" target="FlnB4dvPjRWMIs5MZYfn-41">
          <mxGeometry relative="1" as="geometry" />
        </mxCell>
        <mxCell id="FlnB4dvPjRWMIs5MZYfn-44" value="YES" style="edgeStyle=orthogonalEdgeStyle;rounded=0;orthogonalLoop=1;jettySize=auto;html=1;exitX=0.5;exitY=1;exitDx=0;exitDy=0;exitPerimeter=0;strokeWidth=2;entryX=0.5;entryY=0;entryDx=0;entryDy=0;entryPerimeter=0;" edge="1" parent="1" source="FlnB4dvPjRWMIs5MZYfn-36" target="FlnB4dvPjRWMIs5MZYfn-40">
          <mxGeometry relative="1" as="geometry">
            <mxPoint x="260" y="1800" as="targetPoint" />
          </mxGeometry>
        </mxCell>
        <mxCell id="FlnB4dvPjRWMIs5MZYfn-36" value="Check if data &lt;br&gt;cache exists" style="strokeWidth=2;html=1;shape=mxgraph.flowchart.decision;whiteSpace=wrap;fillColor=#e1d5e7;strokeColor=#9673a6;" vertex="1" parent="1">
          <mxGeometry x="200" y="1400" width="120" height="80" as="geometry" />
        </mxCell>
        <mxCell id="FlnB4dvPjRWMIs5MZYfn-55" style="edgeStyle=orthogonalEdgeStyle;rounded=0;orthogonalLoop=1;jettySize=auto;html=1;exitX=0.5;exitY=1;exitDx=0;exitDy=0;exitPerimeter=0;entryX=0.5;entryY=0;entryDx=0;entryDy=0;strokeWidth=2;" edge="1" parent="1" source="FlnB4dvPjRWMIs5MZYfn-37" target="FlnB4dvPjRWMIs5MZYfn-38">
          <mxGeometry relative="1" as="geometry" />
        </mxCell>
        <mxCell id="FlnB4dvPjRWMIs5MZYfn-37" value="START" style="strokeWidth=2;html=1;shape=mxgraph.flowchart.terminator;whiteSpace=wrap;fillColor=#d5e8d4;strokeColor=#82b366;" vertex="1" parent="1">
          <mxGeometry x="220" y="1200" width="80" height="40" as="geometry" />
        </mxCell>
        <mxCell id="FlnB4dvPjRWMIs5MZYfn-45" style="edgeStyle=orthogonalEdgeStyle;rounded=0;orthogonalLoop=1;jettySize=auto;html=1;exitX=0.5;exitY=1;exitDx=0;exitDy=0;entryX=0.5;entryY=0;entryDx=0;entryDy=0;entryPerimeter=0;strokeWidth=2;" edge="1" parent="1" source="FlnB4dvPjRWMIs5MZYfn-38" target="FlnB4dvPjRWMIs5MZYfn-36">
          <mxGeometry relative="1" as="geometry" />
        </mxCell>
        <mxCell id="FlnB4dvPjRWMIs5MZYfn-38" value="Send a query" style="rounded=1;whiteSpace=wrap;html=1;absoluteArcSize=1;arcSize=14;strokeWidth=2;fillColor=#dae8fc;strokeColor=#6c8ebf;" vertex="1" parent="1">
          <mxGeometry x="200" y="1280" width="120" height="80" as="geometry" />
        </mxCell>
        <mxCell id="FlnB4dvPjRWMIs5MZYfn-47" value="NO" style="edgeStyle=orthogonalEdgeStyle;rounded=0;orthogonalLoop=1;jettySize=auto;html=1;exitX=1;exitY=0.5;exitDx=0;exitDy=0;exitPerimeter=0;entryX=0.5;entryY=0;entryDx=0;entryDy=0;strokeWidth=2;" edge="1" parent="1" source="FlnB4dvPjRWMIs5MZYfn-40" target="FlnB4dvPjRWMIs5MZYfn-46">
          <mxGeometry relative="1" as="geometry" />
        </mxCell>
        <mxCell id="FlnB4dvPjRWMIs5MZYfn-49" value="YES" style="edgeStyle=orthogonalEdgeStyle;rounded=0;orthogonalLoop=1;jettySize=auto;html=1;exitX=0.5;exitY=1;exitDx=0;exitDy=0;exitPerimeter=0;entryX=0.5;entryY=0;entryDx=0;entryDy=0;strokeWidth=2;" edge="1" parent="1" source="FlnB4dvPjRWMIs5MZYfn-40" target="FlnB4dvPjRWMIs5MZYfn-48">
          <mxGeometry relative="1" as="geometry" />
        </mxCell>
        <mxCell id="FlnB4dvPjRWMIs5MZYfn-40" value="Check if query&lt;br&gt;cache Exists" style="strokeWidth=2;html=1;shape=mxgraph.flowchart.decision;whiteSpace=wrap;fillColor=#e1d5e7;strokeColor=#9673a6;" vertex="1" parent="1">
          <mxGeometry x="200" y="1640" width="120" height="80" as="geometry" />
        </mxCell>
        <mxCell id="FlnB4dvPjRWMIs5MZYfn-43" style="edgeStyle=orthogonalEdgeStyle;rounded=0;orthogonalLoop=1;jettySize=auto;html=1;exitX=0.5;exitY=1;exitDx=0;exitDy=0;entryX=0.5;entryY=0;entryDx=0;entryDy=0;entryPerimeter=0;strokeWidth=2;" edge="1" parent="1" source="FlnB4dvPjRWMIs5MZYfn-41" target="FlnB4dvPjRWMIs5MZYfn-40">
          <mxGeometry relative="1" as="geometry">
            <Array as="points">
              <mxPoint x="460" y="1600" />
              <mxPoint x="260" y="1600" />
            </Array>
          </mxGeometry>
        </mxCell>
        <mxCell id="FlnB4dvPjRWMIs5MZYfn-41" value="Run boto API&lt;br&gt;index the data&lt;br&gt;set data cache" style="rounded=1;whiteSpace=wrap;html=1;absoluteArcSize=1;arcSize=14;strokeWidth=2;fillColor=#dae8fc;strokeColor=#6c8ebf;" vertex="1" parent="1">
          <mxGeometry x="400" y="1480" width="120" height="80" as="geometry" />
        </mxCell>
        <mxCell id="FlnB4dvPjRWMIs5MZYfn-52" style="edgeStyle=orthogonalEdgeStyle;rounded=0;orthogonalLoop=1;jettySize=auto;html=1;exitX=0.5;exitY=1;exitDx=0;exitDy=0;entryX=0.5;entryY=0;entryDx=0;entryDy=0;strokeWidth=2;" edge="1" parent="1" source="FlnB4dvPjRWMIs5MZYfn-46" target="FlnB4dvPjRWMIs5MZYfn-50">
          <mxGeometry relative="1" as="geometry">
            <Array as="points">
              <mxPoint x="460" y="1880" />
              <mxPoint x="260" y="1880" />
            </Array>
          </mxGeometry>
        </mxCell>
        <mxCell id="FlnB4dvPjRWMIs5MZYfn-46" value="Query the index&lt;br&gt;set query cache" style="rounded=1;whiteSpace=wrap;html=1;absoluteArcSize=1;arcSize=14;strokeWidth=2;fillColor=#dae8fc;strokeColor=#6c8ebf;" vertex="1" parent="1">
          <mxGeometry x="400" y="1760" width="120" height="80" as="geometry" />
        </mxCell>
        <mxCell id="FlnB4dvPjRWMIs5MZYfn-51" style="edgeStyle=orthogonalEdgeStyle;rounded=0;orthogonalLoop=1;jettySize=auto;html=1;exitX=0.5;exitY=1;exitDx=0;exitDy=0;entryX=0.5;entryY=0;entryDx=0;entryDy=0;strokeWidth=2;" edge="1" parent="1" source="FlnB4dvPjRWMIs5MZYfn-48" target="FlnB4dvPjRWMIs5MZYfn-50">
          <mxGeometry relative="1" as="geometry" />
        </mxCell>
        <mxCell id="FlnB4dvPjRWMIs5MZYfn-48" value="Get result &lt;br&gt;from Cache" style="rounded=1;whiteSpace=wrap;html=1;absoluteArcSize=1;arcSize=14;strokeWidth=2;fillColor=#dae8fc;strokeColor=#6c8ebf;" vertex="1" parent="1">
          <mxGeometry x="200" y="1760" width="120" height="80" as="geometry" />
        </mxCell>
        <mxCell id="FlnB4dvPjRWMIs5MZYfn-54" style="edgeStyle=orthogonalEdgeStyle;rounded=0;orthogonalLoop=1;jettySize=auto;html=1;exitX=0.5;exitY=1;exitDx=0;exitDy=0;entryX=0.5;entryY=0;entryDx=0;entryDy=0;entryPerimeter=0;strokeWidth=2;" edge="1" parent="1" source="FlnB4dvPjRWMIs5MZYfn-50" target="FlnB4dvPjRWMIs5MZYfn-53">
          <mxGeometry relative="1" as="geometry" />
        </mxCell>
        <mxCell id="FlnB4dvPjRWMIs5MZYfn-50" value="Return result&lt;br&gt;to user" style="rounded=1;whiteSpace=wrap;html=1;absoluteArcSize=1;arcSize=14;strokeWidth=2;fillColor=#dae8fc;strokeColor=#6c8ebf;" vertex="1" parent="1">
          <mxGeometry x="200" y="1920" width="120" height="80" as="geometry" />
        </mxCell>
        <mxCell id="FlnB4dvPjRWMIs5MZYfn-53" value="END" style="strokeWidth=2;html=1;shape=mxgraph.flowchart.terminator;whiteSpace=wrap;fillColor=#f8cecc;strokeColor=#b85450;" vertex="1" parent="1">
          <mxGeometry x="220" y="2040" width="80" height="40" as="geometry" />
        </mxCell>
      </root>
    </mxGraphModel>
  </diagram>
  <diagram id="qf6sOtlDaY3Mj_7egOVW" name="Page-2">
    <mxGraphModel dx="1797" dy="2392" grid="1" gridSize="10" guides="1" tooltips="1" connect="1" arrows="1" fold="1" page="1" pageScale="1" pageWidth="850" pageHeight="1100" math="0" shadow="0">
      <root>
        <mxCell id="0" />
        <mxCell id="1" parent="0" />
        <mxCell id="0fqa3XUlksVvuIJ6q3X--1" value="" style="whiteSpace=wrap;html=1;aspect=fixed;fillColor=#f8cecc;strokeColor=#b85450;" vertex="1" parent="1">
          <mxGeometry x="220" y="190" width="80" height="80" as="geometry" />
        </mxCell>
        <mxCell id="0fqa3XUlksVvuIJ6q3X--2" value="" style="whiteSpace=wrap;html=1;aspect=fixed;fillColor=#f8cecc;strokeColor=#b85450;" vertex="1" parent="1">
          <mxGeometry x="220" y="320" width="80" height="80" as="geometry" />
        </mxCell>
        <mxCell id="0fqa3XUlksVvuIJ6q3X--39" style="edgeStyle=orthogonalEdgeStyle;rounded=0;orthogonalLoop=1;jettySize=auto;html=1;exitX=0.5;exitY=1;exitDx=0;exitDy=0;" edge="1" parent="1" source="0fqa3XUlksVvuIJ6q3X--4" target="0fqa3XUlksVvuIJ6q3X--31">
          <mxGeometry relative="1" as="geometry" />
        </mxCell>
        <mxCell id="0fqa3XUlksVvuIJ6q3X--4" value="operational" style="whiteSpace=wrap;html=1;aspect=fixed;fillColor=#d5e8d4;strokeColor=#82b366;" vertex="1" parent="1">
          <mxGeometry x="750" y="170" width="80" height="80" as="geometry" />
        </mxCell>
        <mxCell id="0fqa3XUlksVvuIJ6q3X--5" value="toggle" style="ellipse;whiteSpace=wrap;html=1;aspect=fixed;" vertex="1" parent="1">
          <mxGeometry x="220" y="140" width="40" height="40" as="geometry" />
        </mxCell>
        <mxCell id="0fqa3XUlksVvuIJ6q3X--6" value="toggle" style="ellipse;whiteSpace=wrap;html=1;aspect=fixed;" vertex="1" parent="1">
          <mxGeometry x="210" y="280" width="40" height="40" as="geometry" />
        </mxCell>
        <mxCell id="0fqa3XUlksVvuIJ6q3X--44" style="edgeStyle=orthogonalEdgeStyle;rounded=0;orthogonalLoop=1;jettySize=auto;html=1;exitX=1;exitY=0.5;exitDx=0;exitDy=0;entryX=0;entryY=0.5;entryDx=0;entryDy=0;" edge="1" parent="1" source="0fqa3XUlksVvuIJ6q3X--8" target="0fqa3XUlksVvuIJ6q3X--29">
          <mxGeometry relative="1" as="geometry" />
        </mxCell>
        <mxCell id="0fqa3XUlksVvuIJ6q3X--46" style="edgeStyle=orthogonalEdgeStyle;rounded=0;orthogonalLoop=1;jettySize=auto;html=1;exitX=0.75;exitY=1;exitDx=0;exitDy=0;entryX=0;entryY=0.5;entryDx=0;entryDy=0;" edge="1" parent="1" source="0fqa3XUlksVvuIJ6q3X--8" target="0fqa3XUlksVvuIJ6q3X--28">
          <mxGeometry relative="1" as="geometry">
            <Array as="points">
              <mxPoint x="930" y="430" />
              <mxPoint x="930" y="760" />
            </Array>
          </mxGeometry>
        </mxCell>
        <mxCell id="0fqa3XUlksVvuIJ6q3X--8" value="operational" style="whiteSpace=wrap;html=1;aspect=fixed;fillColor=#d5e8d4;strokeColor=#82b366;" vertex="1" parent="1">
          <mxGeometry x="780" y="350" width="80" height="80" as="geometry" />
        </mxCell>
        <mxCell id="0fqa3XUlksVvuIJ6q3X--40" style="edgeStyle=orthogonalEdgeStyle;rounded=0;orthogonalLoop=1;jettySize=auto;html=1;exitX=1;exitY=1;exitDx=0;exitDy=0;entryX=0.125;entryY=0;entryDx=0;entryDy=0;entryPerimeter=0;" edge="1" parent="1" source="0fqa3XUlksVvuIJ6q3X--9" target="0fqa3XUlksVvuIJ6q3X--25">
          <mxGeometry relative="1" as="geometry" />
        </mxCell>
        <mxCell id="0fqa3XUlksVvuIJ6q3X--43" style="edgeStyle=orthogonalEdgeStyle;rounded=0;orthogonalLoop=1;jettySize=auto;html=1;exitX=0;exitY=0.5;exitDx=0;exitDy=0;entryX=1;entryY=0.5;entryDx=0;entryDy=0;" edge="1" parent="1" source="0fqa3XUlksVvuIJ6q3X--9" target="0fqa3XUlksVvuIJ6q3X--29">
          <mxGeometry relative="1" as="geometry" />
        </mxCell>
        <mxCell id="0fqa3XUlksVvuIJ6q3X--45" style="edgeStyle=orthogonalEdgeStyle;rounded=0;orthogonalLoop=1;jettySize=auto;html=1;exitX=0.5;exitY=1;exitDx=0;exitDy=0;entryX=1;entryY=0.5;entryDx=0;entryDy=0;" edge="1" parent="1" source="0fqa3XUlksVvuIJ6q3X--9" target="0fqa3XUlksVvuIJ6q3X--28">
          <mxGeometry relative="1" as="geometry" />
        </mxCell>
        <mxCell id="0fqa3XUlksVvuIJ6q3X--9" value="SDLC" style="whiteSpace=wrap;html=1;aspect=fixed;fillColor=#d5e8d4;strokeColor=#82b366;" vertex="1" parent="1">
          <mxGeometry x="1330" y="300" width="80" height="80" as="geometry" />
        </mxCell>
        <mxCell id="0fqa3XUlksVvuIJ6q3X--11" value="Orphan" style="whiteSpace=wrap;html=1;aspect=fixed;fillColor=#f8cecc;strokeColor=#b85450;" vertex="1" parent="1">
          <mxGeometry x="530" y="610" width="80" height="80" as="geometry" />
        </mxCell>
        <mxCell id="0fqa3XUlksVvuIJ6q3X--14" value="toggle" style="ellipse;whiteSpace=wrap;html=1;aspect=fixed;" vertex="1" parent="1">
          <mxGeometry x="530" y="560" width="40" height="40" as="geometry" />
        </mxCell>
        <mxCell id="0fqa3XUlksVvuIJ6q3X--18" value="ASP" style="whiteSpace=wrap;html=1;aspect=fixed;fillColor=#f8cecc;strokeColor=#b85450;" vertex="1" parent="1">
          <mxGeometry x="30" y="780" width="80" height="80" as="geometry" />
        </mxCell>
        <mxCell id="0fqa3XUlksVvuIJ6q3X--19" value="ASP" style="whiteSpace=wrap;html=1;aspect=fixed;fillColor=#f8cecc;strokeColor=#b85450;" vertex="1" parent="1">
          <mxGeometry x="30" y="910" width="80" height="80" as="geometry" />
        </mxCell>
        <mxCell id="0fqa3XUlksVvuIJ6q3X--20" value="ASP" style="whiteSpace=wrap;html=1;aspect=fixed;fillColor=#f8cecc;strokeColor=#b85450;" vertex="1" parent="1">
          <mxGeometry x="40" y="1060" width="80" height="80" as="geometry" />
        </mxCell>
        <mxCell id="0fqa3XUlksVvuIJ6q3X--21" value="toggle" style="ellipse;whiteSpace=wrap;html=1;aspect=fixed;" vertex="1" parent="1">
          <mxGeometry x="30" y="730" width="40" height="40" as="geometry" />
        </mxCell>
        <mxCell id="0fqa3XUlksVvuIJ6q3X--22" value="toggle" style="ellipse;whiteSpace=wrap;html=1;aspect=fixed;" vertex="1" parent="1">
          <mxGeometry x="20" y="870" width="40" height="40" as="geometry" />
        </mxCell>
        <mxCell id="0fqa3XUlksVvuIJ6q3X--23" value="toggle" style="ellipse;whiteSpace=wrap;html=1;aspect=fixed;" vertex="1" parent="1">
          <mxGeometry x="20" y="1030" width="40" height="40" as="geometry" />
        </mxCell>
        <mxCell id="0fqa3XUlksVvuIJ6q3X--42" style="edgeStyle=orthogonalEdgeStyle;rounded=0;orthogonalLoop=1;jettySize=auto;html=1;exitX=0.25;exitY=1;exitDx=0;exitDy=0;" edge="1" parent="1" source="0fqa3XUlksVvuIJ6q3X--25" target="0fqa3XUlksVvuIJ6q3X--26">
          <mxGeometry relative="1" as="geometry" />
        </mxCell>
        <mxCell id="0fqa3XUlksVvuIJ6q3X--25" value="SDLC" style="whiteSpace=wrap;html=1;aspect=fixed;fillColor=#d5e8d4;strokeColor=#82b366;" vertex="1" parent="1">
          <mxGeometry x="1410" y="390" width="80" height="80" as="geometry" />
        </mxCell>
        <mxCell id="0fqa3XUlksVvuIJ6q3X--26" value="SDLC" style="whiteSpace=wrap;html=1;aspect=fixed;fillColor=#d5e8d4;strokeColor=#82b366;" vertex="1" parent="1">
          <mxGeometry x="1420" y="490" width="80" height="80" as="geometry" />
        </mxCell>
        <mxCell id="0fqa3XUlksVvuIJ6q3X--27" value="orphan" style="whiteSpace=wrap;html=1;aspect=fixed;fillColor=#d5e8d4;strokeColor=#82b366;" vertex="1" parent="1">
          <mxGeometry x="1190" y="-30" width="80" height="80" as="geometry" />
        </mxCell>
        <mxCell id="0fqa3XUlksVvuIJ6q3X--28" value="OM US" style="whiteSpace=wrap;html=1;aspect=fixed;fillColor=#d5e8d4;strokeColor=#82b366;" vertex="1" parent="1">
          <mxGeometry x="1000" y="720" width="80" height="80" as="geometry" />
        </mxCell>
        <mxCell id="0fqa3XUlksVvuIJ6q3X--29" value="OM FRANK" style="whiteSpace=wrap;html=1;aspect=fixed;fillColor=#d5e8d4;strokeColor=#82b366;" vertex="1" parent="1">
          <mxGeometry x="1060" y="150" width="80" height="80" as="geometry" />
        </mxCell>
        <mxCell id="0fqa3XUlksVvuIJ6q3X--30" value="toggle" style="ellipse;whiteSpace=wrap;html=1;aspect=fixed;" vertex="1" parent="1">
          <mxGeometry x="780" y="130" width="40" height="40" as="geometry" />
        </mxCell>
        <mxCell id="0fqa3XUlksVvuIJ6q3X--31" value="toggle" style="ellipse;whiteSpace=wrap;html=1;aspect=fixed;" vertex="1" parent="1">
          <mxGeometry x="790" y="320" width="40" height="40" as="geometry" />
        </mxCell>
        <mxCell id="0fqa3XUlksVvuIJ6q3X--32" value="toggle" style="ellipse;whiteSpace=wrap;html=1;aspect=fixed;" vertex="1" parent="1">
          <mxGeometry x="1080" y="120" width="40" height="40" as="geometry" />
        </mxCell>
        <mxCell id="0fqa3XUlksVvuIJ6q3X--33" value="toggle" style="ellipse;whiteSpace=wrap;html=1;aspect=fixed;" vertex="1" parent="1">
          <mxGeometry x="1220" y="-70" width="40" height="40" as="geometry" />
        </mxCell>
        <mxCell id="0fqa3XUlksVvuIJ6q3X--34" value="toggle" style="ellipse;whiteSpace=wrap;html=1;aspect=fixed;" vertex="1" parent="1">
          <mxGeometry x="1360" y="280" width="40" height="40" as="geometry" />
        </mxCell>
        <mxCell id="0fqa3XUlksVvuIJ6q3X--36" value="toggle" style="ellipse;whiteSpace=wrap;html=1;aspect=fixed;" vertex="1" parent="1">
          <mxGeometry x="1450" y="470" width="40" height="40" as="geometry" />
        </mxCell>
        <mxCell id="0fqa3XUlksVvuIJ6q3X--37" value="toggle" style="ellipse;whiteSpace=wrap;html=1;aspect=fixed;" vertex="1" parent="1">
          <mxGeometry x="1440" y="360" width="40" height="40" as="geometry" />
        </mxCell>
        <mxCell id="0fqa3XUlksVvuIJ6q3X--38" value="toggle" style="ellipse;whiteSpace=wrap;html=1;aspect=fixed;" vertex="1" parent="1">
          <mxGeometry x="1010" y="700" width="40" height="40" as="geometry" />
        </mxCell>
        <mxCell id="0fqa3XUlksVvuIJ6q3X--52" style="edgeStyle=orthogonalEdgeStyle;rounded=0;orthogonalLoop=1;jettySize=auto;html=1;exitX=1;exitY=1;exitDx=0;exitDy=0;entryX=0.125;entryY=0;entryDx=0;entryDy=0;entryPerimeter=0;" edge="1" parent="1" source="0fqa3XUlksVvuIJ6q3X--55" target="0fqa3XUlksVvuIJ6q3X--57">
          <mxGeometry relative="1" as="geometry" />
        </mxCell>
        <mxCell id="0fqa3XUlksVvuIJ6q3X--55" value="SDLC" style="whiteSpace=wrap;html=1;aspect=fixed;fillColor=#f8cecc;strokeColor=#b85450;" vertex="1" parent="1">
          <mxGeometry x="690" y="1830" width="80" height="80" as="geometry" />
        </mxCell>
        <mxCell id="0fqa3XUlksVvuIJ6q3X--56" style="edgeStyle=orthogonalEdgeStyle;rounded=0;orthogonalLoop=1;jettySize=auto;html=1;exitX=0.25;exitY=1;exitDx=0;exitDy=0;" edge="1" parent="1" source="0fqa3XUlksVvuIJ6q3X--57" target="0fqa3XUlksVvuIJ6q3X--58">
          <mxGeometry relative="1" as="geometry" />
        </mxCell>
        <mxCell id="0fqa3XUlksVvuIJ6q3X--57" value="SDLC" style="whiteSpace=wrap;html=1;aspect=fixed;fillColor=#f8cecc;strokeColor=#b85450;" vertex="1" parent="1">
          <mxGeometry x="770" y="1920" width="80" height="80" as="geometry" />
        </mxCell>
        <mxCell id="0fqa3XUlksVvuIJ6q3X--73" style="edgeStyle=orthogonalEdgeStyle;rounded=0;orthogonalLoop=1;jettySize=auto;html=1;exitX=0.5;exitY=1;exitDx=0;exitDy=0;entryX=0.25;entryY=0;entryDx=0;entryDy=0;" edge="1" parent="1" source="0fqa3XUlksVvuIJ6q3X--58" target="0fqa3XUlksVvuIJ6q3X--72">
          <mxGeometry relative="1" as="geometry" />
        </mxCell>
        <mxCell id="0fqa3XUlksVvuIJ6q3X--58" value="SDLC" style="whiteSpace=wrap;html=1;aspect=fixed;fillColor=#f8cecc;strokeColor=#b85450;" vertex="1" parent="1">
          <mxGeometry x="780" y="2020" width="80" height="80" as="geometry" />
        </mxCell>
        <mxCell id="0fqa3XUlksVvuIJ6q3X--61" value="OM FRANK" style="whiteSpace=wrap;html=1;aspect=fixed;fillColor=#f8cecc;strokeColor=#b85450;" vertex="1" parent="1">
          <mxGeometry x="420" y="1680" width="80" height="80" as="geometry" />
        </mxCell>
        <mxCell id="0fqa3XUlksVvuIJ6q3X--64" value="toggle" style="ellipse;whiteSpace=wrap;html=1;aspect=fixed;" vertex="1" parent="1">
          <mxGeometry x="440" y="1650" width="40" height="40" as="geometry" />
        </mxCell>
        <mxCell id="0fqa3XUlksVvuIJ6q3X--66" value="toggle" style="ellipse;whiteSpace=wrap;html=1;aspect=fixed;" vertex="1" parent="1">
          <mxGeometry x="720" y="1810" width="40" height="40" as="geometry" />
        </mxCell>
        <mxCell id="0fqa3XUlksVvuIJ6q3X--67" value="toggle" style="ellipse;whiteSpace=wrap;html=1;aspect=fixed;" vertex="1" parent="1">
          <mxGeometry x="810" y="2000" width="40" height="40" as="geometry" />
        </mxCell>
        <mxCell id="0fqa3XUlksVvuIJ6q3X--68" value="toggle" style="ellipse;whiteSpace=wrap;html=1;aspect=fixed;" vertex="1" parent="1">
          <mxGeometry x="800" y="1890" width="40" height="40" as="geometry" />
        </mxCell>
        <mxCell id="0fqa3XUlksVvuIJ6q3X--70" value="asset" style="whiteSpace=wrap;html=1;aspect=fixed;fillColor=#f8cecc;strokeColor=#b85450;" vertex="1" parent="1">
          <mxGeometry x="20" y="1240" width="80" height="80" as="geometry" />
        </mxCell>
        <mxCell id="0fqa3XUlksVvuIJ6q3X--71" value="toggle" style="ellipse;whiteSpace=wrap;html=1;aspect=fixed;" vertex="1" parent="1">
          <mxGeometry y="1210" width="40" height="40" as="geometry" />
        </mxCell>
        <mxCell id="0fqa3XUlksVvuIJ6q3X--74" style="edgeStyle=orthogonalEdgeStyle;rounded=0;orthogonalLoop=1;jettySize=auto;html=1;exitX=0;exitY=0.5;exitDx=0;exitDy=0;entryX=1;entryY=0.5;entryDx=0;entryDy=0;" edge="1" parent="1" source="0fqa3XUlksVvuIJ6q3X--72" target="0fqa3XUlksVvuIJ6q3X--61">
          <mxGeometry relative="1" as="geometry" />
        </mxCell>
        <mxCell id="0fqa3XUlksVvuIJ6q3X--72" value="Asset" style="whiteSpace=wrap;html=1;aspect=fixed;fillColor=#f8cecc;strokeColor=#b85450;" vertex="1" parent="1">
          <mxGeometry x="790" y="2150" width="80" height="80" as="geometry" />
        </mxCell>
      </root>
    </mxGraphModel>
  </diagram>
</mxfile>
